<svg class="r-svg" viewBox="0 0 240 280" xmlns="http://www.w3.org/2000/svg" role="img" aria-label="小V">
  <ellipse class="r-shadow" cx="120" cy="262" rx="44" ry="9"/>
  <g class="r-hover">
    <g class="r-head">
      <path class="r-antenna-stem" d="M120 66 L120 46"/>
      <circle class="r-antenna-glow" cx="120" cy="36" r="15"/>
      <circle class="r-antenna-bulb" cx="120" cy="36" r="8"/>
      <rect class="r-ear r-ear-left" x="48" y="104" width="12" height="24" rx="6"/>
      <rect class="r-ear r-ear-right" x="180" y="104" width="12" height="24" rx="6"/>
      <rect class="r-head-shell" x="58" y="64" width="124" height="100" rx="30"/>
      <rect class="r-face" x="74" y="82" width="92" height="64" rx="18"/>
      <g class="r-eyes">
        <rect class="r-eye-pill r-eye-left" x="94" y="100" width="15" height="22" rx="7.5"/>
        <rect class="r-eye-pill r-eye-right" x="131" y="100" width="15" height="22" rx="7.5"/>
        <path class="r-eye-arc r-eye-arc-left" d="M91 110 Q101.5 100 112 110"/>
        <path class="r-eye-arc r-eye-arc-right" d="M128 110 Q138.5 100 149 110"/>
        <path class="r-eye-closed r-eye-closed-left" d="M92 108 Q101.5 113 111 108"/>
        <path class="r-eye-closed r-eye-closed-right" d="M129 108 Q138.5 113 148 108"/>
        <path class="r-eye-squeeze r-eye-squeeze-left" d="M95 101 L107 111 L95 121"/>
        <path class="r-eye-squeeze r-eye-squeeze-right" d="M145 101 L133 111 L145 121"/>
      </g>
      <path class="r-mouth" d="M110 128 Q120 134 130 128"/>
      <circle class="r-cheek r-cheek-left" cx="86" cy="126" r="5"/>
      <circle class="r-cheek r-cheek-right" cx="154" cy="126" r="5"/>
    </g>
    <rect class="r-arm r-arm-left" x="58" y="176" width="20" height="38" rx="10"/>
    <rect class="r-arm r-arm-right" x="162" y="176" width="20" height="38" rx="10"/>
    <g class="r-body">
      <rect class="r-body-shell" x="84" y="168" width="72" height="56" rx="20"/>
      <circle class="r-chest" cx="120" cy="196" r="9"/>
      <circle class="r-chest-hl" cx="120" cy="196" r="3.5"/>
    </g>
  </g>
</svg>
